<mxfile host="app.diagrams.net" modified="2024-04-19T08:37:03.866Z" agent="Mozilla/5.0 (Macintosh; Intel Mac OS X 10_15_7) AppleWebKit/537.36 (KHTML, like Gecko) Chrome/120.0.0.0 YaBrowser/24.1.0.0 Safari/537.36" etag="Kilxys8b4ca2_t-TfkWk" version="24.2.5" type="gitlab">
  <diagram name="Страница — 1" id="FeXDEtHki2LGUGV5Xt-U">
    <mxGraphModel dx="1406" dy="765" grid="1" gridSize="10" guides="1" tooltips="1" connect="1" arrows="1" fold="1" page="1" pageScale="1" pageWidth="827" pageHeight="1169" math="0" shadow="0">
      <root>
        <mxCell id="0" />
        <mxCell id="1" parent="0" />
        <mxCell id="KoXb4uDFBmkU-DJSfhww-1" value="" style="rounded=0;whiteSpace=wrap;html=1;fontFamily=Architects Daughter;fontSource=https%3A%2F%2Ffonts.googleapis.com%2Fcss%3Ffamily%3DArchitects%2BDaughter;fillColor=#d80073;strokeColor=#A50040;fontColor=#ffffff;" parent="1" vertex="1">
          <mxGeometry x="470" y="465" width="220" height="100" as="geometry" />
        </mxCell>
        <mxCell id="KoXb4uDFBmkU-DJSfhww-2" value="form" style="text;html=1;align=center;verticalAlign=middle;whiteSpace=wrap;rounded=0;fontSize=20;fontFamily=Architects Daughter;fontSource=https%3A%2F%2Ffonts.googleapis.com%2Fcss%3Ffamily%3DArchitects%2BDaughter;" parent="1" vertex="1">
          <mxGeometry x="520" y="500" width="120" height="30" as="geometry" />
        </mxCell>
        <mxCell id="KoXb4uDFBmkU-DJSfhww-3" value="" style="edgeStyle=none;orthogonalLoop=1;jettySize=auto;html=1;rounded=0;fontFamily=Architects Daughter;fontSource=https%3A%2F%2Ffonts.googleapis.com%2Fcss%3Ffamily%3DArchitects%2BDaughter;fontSize=16;startSize=14;endArrow=open;endSize=14;sourcePerimeterSpacing=8;targetPerimeterSpacing=8;curved=1;" parent="1" edge="1">
          <mxGeometry width="140" relative="1" as="geometry">
            <mxPoint x="510" y="475" as="sourcePoint" />
            <mxPoint x="470" y="420" as="targetPoint" />
            <Array as="points" />
          </mxGeometry>
        </mxCell>
        <mxCell id="KoXb4uDFBmkU-DJSfhww-4" value=".map" style="text;html=1;align=center;verticalAlign=middle;whiteSpace=wrap;rounded=0;fontSize=20;fontFamily=Architects Daughter;fontSource=https%3A%2F%2Ffonts.googleapis.com%2Fcss%3Ffamily%3DArchitects%2BDaughter;" parent="1" vertex="1">
          <mxGeometry x="470" y="465" width="120" height="30" as="geometry" />
        </mxCell>
        <mxCell id="KoXb4uDFBmkU-DJSfhww-5" value="" style="edgeStyle=none;orthogonalLoop=1;jettySize=auto;html=1;rounded=0;fontFamily=Architects Daughter;fontSource=https%3A%2F%2Ffonts.googleapis.com%2Fcss%3Ffamily%3DArchitects%2BDaughter;fontSize=16;startSize=14;endArrow=open;endSize=14;sourcePerimeterSpacing=8;targetPerimeterSpacing=8;curved=1;" parent="1" edge="1">
          <mxGeometry width="140" relative="1" as="geometry">
            <mxPoint x="530" y="475" as="sourcePoint" />
            <mxPoint x="530" y="410" as="targetPoint" />
            <Array as="points" />
          </mxGeometry>
        </mxCell>
        <mxCell id="KoXb4uDFBmkU-DJSfhww-6" value="" style="edgeStyle=none;orthogonalLoop=1;jettySize=auto;html=1;rounded=0;fontFamily=Architects Daughter;fontSource=https%3A%2F%2Ffonts.googleapis.com%2Fcss%3Ffamily%3DArchitects%2BDaughter;fontSize=16;startSize=14;endArrow=open;endSize=14;sourcePerimeterSpacing=8;targetPerimeterSpacing=8;curved=1;" parent="1" edge="1">
          <mxGeometry width="140" relative="1" as="geometry">
            <mxPoint x="550" y="475" as="sourcePoint" />
            <mxPoint x="590" y="420" as="targetPoint" />
            <Array as="points" />
          </mxGeometry>
        </mxCell>
        <mxCell id="KoXb4uDFBmkU-DJSfhww-8" value="" style="rounded=0;whiteSpace=wrap;html=1;fontFamily=Architects Daughter;fontSource=https%3A%2F%2Ffonts.googleapis.com%2Fcss%3Ffamily%3DArchitects%2BDaughter;fillColor=#d80073;strokeColor=#A50040;fontColor=#ffffff;" parent="1" vertex="1">
          <mxGeometry x="350" y="320" width="118" height="120" as="geometry" />
        </mxCell>
        <mxCell id="KoXb4uDFBmkU-DJSfhww-10" value="input (mask)" style="text;html=1;align=center;verticalAlign=middle;whiteSpace=wrap;rounded=0;fontSize=20;fontFamily=Architects Daughter;fontSource=https%3A%2F%2Ffonts.googleapis.com%2Fcss%3Ffamily%3DArchitects%2BDaughter;" parent="1" vertex="1">
          <mxGeometry x="350" y="350" width="120" height="30" as="geometry" />
        </mxCell>
        <mxCell id="KoXb4uDFBmkU-DJSfhww-11" value="...max, min" style="text;html=1;align=center;verticalAlign=middle;whiteSpace=wrap;rounded=0;fontSize=20;fontFamily=Architects Daughter;fontSource=https%3A%2F%2Ffonts.googleapis.com%2Fcss%3Ffamily%3DArchitects%2BDaughter;" parent="1" vertex="1">
          <mxGeometry x="353" y="380" width="120" height="20" as="geometry" />
        </mxCell>
        <mxCell id="KoXb4uDFBmkU-DJSfhww-12" value="validate()" style="text;html=1;align=center;verticalAlign=middle;whiteSpace=wrap;rounded=0;fontSize=20;fontFamily=Architects Daughter;fontSource=https%3A%2F%2Ffonts.googleapis.com%2Fcss%3Ffamily%3DArchitects%2BDaughter;" parent="1" vertex="1">
          <mxGeometry x="353" y="400" width="120" height="30" as="geometry" />
        </mxCell>
        <mxCell id="uAQIIgLfSYP05nMSnJHs-1" value="" style="shape=stencil(lVrJch03DPwaXVncl7Pj/IerLEeqKJZLdra/TzMqjh4bM237Zj+xZ0gCaDSAuUvvvj58+HJ/F/3Xby/Pv9///fjx28Nd+uUuxsfPD/cvj9/wr7v0/i69+/T8cv/by/Ofnz++/v/Lh7ly/uuP57/mE/55xcXshp+o6P99/SVEl/L/v/z6Cnh6/HwLiK4GBmR/DQjDtboDkvNNAJpLfQcUl6oAFNcJcDziHJBdzDtguF4EILpSNgCuoatDe1f3N8Tqojh0d3U/QvLykqrrbV+fnRcbKm7+6XZ9c01cUXZht3IO6wmn65PL+wXl7NJQ6/3Y1zftdm7s91O8C+L5WL/ff0kuiPu062GvIPdP64fLwkdxP/t91ric9ur+97Cs1RVx/2V511rfvIyZ6sbuDw32Es8fztP67qIKgMAR08O64quYTLtH9KKDuLmy80rv8ggx8BmGdz0JQHZtN8KA0YRTzCgmQJZencAraQcUV8ShU11HPADVZXGGNNwoDBgicHJiTxrNRQXABjIDlOEyIsW8QQFKdLGaLalgKIs7bw+t2LFxjprXKgDVnxiuCdeoid0brjFEykG8U44CwAtfqsPFnSKHzrMtLgY9AGGx7DkAO95JDAGkDt2ay/uW+nBJHLoNVymmm6RJkErZb6lXFwTv9WR4CVQrtgQWYpoJrilA49QPqhzilnAndfelBkEjzgAzUcTBlFWRd2SRB2dR7j1M+oc7qnQ7jL5AfhuClxBfRMZIoF24NwBlj2lkaEXGAPTdvSEBlB3eiPEABJnj5ht29859ZYwfPEPW7D1viQB5ceGlHUhXRW24vALyAPhlmXNAYjKGkuyCZt5I5QBoqgSpUBZNUE/iDAgguqUUXBC+hBDN+y0hc6szgARIbkNANUUzeanNA5CXO54D4pJrBwDsLVyj++U5B0ArdLBQ2gFBk0BDyO8h+ia5zgHJNSqriky7DYqMCje4tzh0xRlM8akirpalyg9AkLq+mvJ2SLtN1trX9/WAK6Xh93iD9hGeVzL7RV1p/nx94P0U+XyIsbTbLK9K9ErtUeEAT1frMwulJCMNdMWxvNLplb4lxXAk+PP1jT0orQ2ery/sotiPer4pJJNMa3EY/pX7t4W/tu80J2mFpb7P16f1uBv/FwEWjYhERCruBUsFoqEs1X/0qyI6AFqbA8D9o7beedWhGpUBSuIBQEEZumQV/JmsgF9UuyA009Lq0m7ziMVsSR26snKehxZMBwC1JOY71ZYKC7BpOHWthbkFvyh2x/OiZ4DqggFQaUtZCrDQmB6DrsJw65zSNOEB0DMDZKNkGMMhaSrK8MZwWYoXADhpIo0KaTFD1FhaFVXzDSamVZqdZyDW0Fpk3pIJIK/aSd14a9d97W621KVMPelrd9kdwp00I8CGOnTlKmy+U22prCLtxg4y4mxMF9nG+HlAXZ34m4RSNLd68la/msuX7M0SrKqU6Lk+L6uMu0qJZIW0wuMyRdMVyfJ/9m7pwLpVjejc499LP4WEqY3Wy+dndiI9ukiNW2FekjYkXo+8XknOyO0RLwujXLgV4WWrPTeWnF62Ogr0CPGvlHjFSMioS4Ri6mXZ+i+d7z/L89bA0qLI0VFN7J9tRehVp5Na1H0NS64anUQpukRr0WTYIHVIK9z3R0pW6WyW1hSRurnbzXgw6GZWjyd6sAmj9cxaatKY2lJdOv8AxOVX54DONPE2L7nq63CL4ygmr9qWnlocQw5RR1pt0JtGkKpmR+FqPCU5HZljASofqwy20bjll2A41fLrK9sd0RmWfjsH2Ao+yRYEAI3allUnTH8Q9E2jU1XlJ4gS9D2ZTZXvdDpNDVaanmD21XU8Oilelv4wHeUdMJsiPjgHDfFrW330K/fL+xuaTs0j8QSmJdlhQwhRD681bQe/xicHGXs5WwANUAj1pJnJfK3RdT3/9rwD0FcJdA4I/DHC0Nc6BzTU9IhSYjQ7nNMtapiJNMDIcvYMR4h0hiKZaboaZcUqp3k1G0CTvgQdwIfuMqVAaPAoeazu25WSIWU+aUFLJQtQh56zZ2oge60+wY3UMMQrlDwH+xL1jWPAd6Vvi7km1VhJhYlpJg2loAOH3NDVMxQbdZGHbjvPriidIS+VfFWE0awAIaeCOphRWNeyL5gypuuZzTDrkxydmTKsjRXk547B2QE6U/ZtFkEc64NuY5pPjI5Zw+l6z4NtpDc17vQ8Ey5D1jFWAlQ5KvBcx89PtvR+zCdhamJmBmZZE6TnMgyRLT8SXFR1rD+6XBf25UlB/c4nYfTZTEqSuSqXbair5DSOy6r5baiayDNtzT6E6nQebYrbdpaOYP42tUhNGMwHW3hEF1pkNsGp9eL1luwXXrqVejJOlI1R8znukDE5v/vrvF49v3DhOfTwpTDJDVkUxso2HtKnsT4ZA0RhMQCyAagv5k4Bqol6sqWwJuc/eGYAVO6zlwqAahdYq80hm34DuQUAUfcgf/Iz8O8D8I+3r84/PT49vX60fvt3/kodP71+4Z7e/wc=);lineShape=1;strokeColor=default;fontFamily=Architects Daughter;fontSource=https%3A%2F%2Ffonts.googleapis.com%2Fcss%3Ffamily%3DArchitects%2BDaughter;" parent="1" vertex="1">
          <mxGeometry x="107.27447089654606" y="13.896659283645022" width="119.38275907942784" height="121.6369906556256" as="geometry" />
        </mxCell>
        <mxCell id="uAQIIgLfSYP05nMSnJHs-2" value="" style="shape=stencil(7VrJbhs2FPwaXQnuyzlN/yNAnNqoaweO0+XvO6xAVZwnjeAihx58k2WOuLxt3pCH9OHb/aevd4fov72+PP9698fD59f7Q/rpEOPD0/3dy8MrPh3Sx0P68OX55e6Xl+fvT5+Pf3/9NEfOT789/z5/4c8jLrjSJyj6v45f5OpC/uebn4/jHx+ezsZn59M+vrjYr48fzod9fHalXR8fgqudAbkKQHZ1GEASgO68f8sMF84Ie4gCgCOJDGhi07G7WvlUvQCk4JoxQxJ7SHn9+wxQhZ1Td6MwYHjhGMn5zJ6UgwBUs6TqWhGA4UIyADFDiS4EBlThGqUY52vSDqW7HhlQhR1qdGkwoAk71GICDgBhh9rcMDNUsYcWTDw06RoNvmROSQKa8dYm7dC9S+ZYyxAAOB8BugvilHpxbTBAhWjvrmQDEEsakeOheBfEDCO5uEdcQZQLXwKg7scKh68igADoBEjSDhNAS8q3Zmi7LxWdZgBIbQdUV9Smo+u74UpzSc0QV306AwwFCMvVToCuZ/CuZwZk5RreeTNDVt46OOIAUHkJ3toKb1qVLABiYjs0Udd7dmPP3vAlVXY7fHMP0RkPwtJtrMR4Tk0UoLq4+1L20tItLrsuQCrS+WrngpJgShEPFQG0nxIIVBbHWoYb+ykF2F6VrLp+7wTQXGOG/L4kUK4g9oAsVPYlIRWKFSEvdsoBssIhtXMNlRvA+Eyp20URbRgf9w0jSYlQwPhAXrHC9er4PXSiDIS5nv33gywkc7+FxkfFq9o6vjXeS5Y0K2Wl8crjML4GGi/PZ3C284twXBtfeP2Sg3mu/V76A8bnRONVTUPJI3+Av4n1zwK2R2ST+0XI1z1egpeEDRySyjhCXpWPWtcBngAogWoGkH9y6bBo6DUOSYQt6mrQEicVZAnVFzYT9WgtVVVu5ljRNFVVZMM69RMgrWR8jXRSrk5VErZemeGlsRqOq2WciHOUhhun1HBWM5MmbJmcW9ebUVZwnbNUxY4M+UdAdZGPxuACNbmLmCF4zx0MQkS1nljT2I8JbZZSPUZmd0VMdXGuYGx+NzViqipnKtwN16GdyfMxIQglPTIzIAiDMHU1hsBPKMuB7VDIIQhV2piG3UNuskRFjwJzi679e2oQu3/DMspw2ehPaCCU7pEaLwkhkpV2k7lHGk22C0h0JMUgRIawAwDMGLyuudGoPZiia8WqeAZITcywjHGSBi8DGjcYo69e8Sog8bkqZ8KSKEYBkEvqKzWeAFVWuWjyNwDSDoPzN5xJKodjcdlzgPBvNCx2hqGUQ89926haavRcFgEY4pRQl31lOyi1ZwLIcF2K0FhSbwyQS/KumHhQGjEA1BnOAFKuMfhYb8bouDCFam+nqpwZoMRJAKKJ0aAyU2d1H+eqLDdjlHyj6VRm1EwAog65aLyv6qAmug5AUJlssLCHCOo/EgDemcldkzQceCdJVlN9VD2W5/TdhyTH85Znt3SvWsjwrJeitKvCi7YpEXlAjIoZppS+n1Irkm2AgVHjB8Ykm5S8vP+MxKnWG3SHmhTwyqJoYubODBxKMdfeWFCqQep0w7OKVr2sKKC6ebc0GtSkyHTk/himVGUUS0pGOlSKEtqgQGqm18daVkd/6mqaLBBo5Shr5CzJNNg3i1ZalWlGkU1dao1wvkH9a1518loPTmlmEkcVQJ1niPqmCD0PVUU07eqWpZrrgBh1iHpWZIM+JbgaXQeELOkMXI3sEIIr6hIxcNPe5Y3Gu5z5Lmf+r+VMIxEF6T8ImMFyflTrL1yhuqRT5RTgZwGpiALqPpHOUGVyn/InSYc3crVhR7Eup70mrdAlfQqSB0+iQBdJVd/PJY56UDilxYCekZqJipb0pWSmZwCay/+n++rds9/vqy8C4vt99Y+/rzZpGzNIpm2eJwHg1ZIiPymZLc2bXrnA+YrYg31HMwFveqlzC2DeAk2AImymP58ARQkLlzcAlLIy27zAAJXI0K4QSwVASQbzCp0snSUPLubyqmStc3vWGCYNFZuez50KA9T1AZI7x8OpYlxVAGhJUSYBFCgSJaYYLwJo3p6Z+nBD1qMKVHSdjt0AvFatCwuHxctjjTa3eil7BKOI3WhV52uNaADilMCOOFXqPRhJeY5XzmpSwI1DNcEQZBaLzJUwXtXowELS/H31IJgllXK6nL443jNRwn6VNmxa1OkS8vf5EeqQ6p+5zJzvXsX5e/PCWldzb17RtsUHru238fgo7OWZUt141hsuPNJV9zxvfbF+ezw+/Ps8/svD4+Pxdf35//k5Pb46PsVPH/8G);lineShape=1;strokeColor=default;fontFamily=Architects Daughter;fontSource=https%3A%2F%2Ffonts.googleapis.com%2Fcss%3Ffamily%3DArchitects%2BDaughter;" parent="1" vertex="1">
          <mxGeometry x="222.96640715058493" y="29.176232961980304" width="99.19087725653048" height="73.3203885076224" as="geometry" />
        </mxCell>
        <mxCell id="uAQIIgLfSYP05nMSnJHs-3" value="" style="shape=stencil(7VzJkt02DPyaubJIENzOWf7DVXHiqTi2y3a2vw+YKepJDanlueWQ2yyAHgmCQKMBvaf83Zd3bz69fZL45evnj7++/fP5p6/vnvL3TyLPH969/fz81X56yj885e9+/vj57S+fP/7+4aeX3z+9mZLzp98+/jGf8NeL3ghap5LEv1/+kEOP//7hxxfx988fDuJFDuLlTlwP4j1If8XTUwo5M3ltR/kSUmLyuR/l7RPp8iUd5EVD1mv5Hvo4yo9QK5PXcjS+hjGu5VsYR3mNIQmT13yUt+cT+9cwjvtVs0Bh8mDPIvT55izH9Rd7AtlvCXpcT7ETbEw+Hp25Sohk/RoayGuoxJ66VrvJt5DI+nMYR/evI3TizznoUb5JKGS/Zu3jfWklCPE3e9rR/q2FRtYvQY7+02OIxP/N2vEon0Ij67f/HtfT85380R+6Uv9MoSrKM3umUDLKd7LftLxxk9888EI+DZQX4m9xRYOdfCbxKobWnTyJh3FZY78est+I/j/3S/wnOv8xexL7xxW9d/KV7je653P7oH/aDaXriYLyldoH4kmXkOj9TXBekfpzRnu2LX1fxKsO8cEyFJGvK5nv5AvNv6mgPLO/pfOmqJDYhbHzdJ/AIlByKcxC3CBXwBCARlToJIfZJe4uiFIFXXd8r8Cibg063B6IWQ1H1FdtOkcMdDd7yHJipUHOIW8XcX/SzLVrkIYKhX1CX6Ftdxki2bS66GUKhSlIqJCetoBwrrBFz50Cuz/aXcBL64qfA5y08vsuwkTiGkWDdlRgrlHairi7mMdido2hQlLQdUPOFbLL+oVm2VpX0NoUKoVRzcd581amkDGQ9UETeat4DiPSTNtcqBxpXdrz0iCtLW4KsqL5uYKi841MT7q7Gzd0ncy5gnnr0ayjrPB8rjBCy6jATtpsglaqFGCbTdQpFKaQsSIdlVppbAhnU2gUI02bVDQr3XRZK965xs2SoKww9+5MoWIwtiDATvphxF24Z0DPFBooJFqpmQKUyrXQpDiPCWqpyKkHUziegxWb7E5PBahm7YryPQA8Vyun2JIaxiWrx1nKOlGwaMsAmVtSbisBXH7C8Ypa5lZ2Dg2vaE4rTV4pwH0wuMJAtynUI16agIjvAWDuLNS5AvAoj0rxXGEDnTviiAXjaVZgjiJlgmZgbKjASlULKhD5ZrXFQyWA+7s9RFySKUTifJYfIGWlTkOlZSCozxP31q6OwKs8ZTkGwxQS20PEcJ8KLbGadw2lgcygQ2yoIOSkm8UI2HSmLFUTtwdZsfASL3VUYGm3+k0nenCP4L4pbLDxEiQCdKBBoyaX1ynTPIlEZKYZHDNYDFQwr0NLQZO2xWWeywsmn0or9RJXvfaQZ8y0VRqQoAtFxFpXJnvIF8Y0KNqfM1tWWwF1xpnpSXSjfGMFa1/E70Oe+VuuSB2bPHu+InWjNPXPAlpQnlW3jkpSztS6VgUvwswdm7M/8c+ZgjPKM6bZjh/9h5XOopgwywqT5/KyGJGHPOuETNZGUJ4939m/LAOf00gds2uh8ccSXcT7wkqpmYXyK9afNmJ8d16MmRPX+qFAczJ56J+8Uwfumel17MixZQpKO/Y1Mm0DdiQVhZfiaEqhrry1OLdUt67+hTgcbKR0S19h6SHOnj6QweYNw4EUWaTs0sAgsgGJc6dx/H6kScvkM26WtofiylEP0zNSZmKQBPL0kkRMckLbx3P96JfMc0weoGFeznFlfgFxWq8i5MlL/8LTBi6mMGyOWD7TVmRHQllofuvIVQmFFx3puUQRc0cwkii468iOxBV/rgwZQVz40EEFceY0A0nqSIu0gcfExS3OF7yyzMeSw7GJP18xJCR+pQrGv0TrAp9nhbqlz+MGVBmucDhh65R8Iw6R1fP/RpwjtNDyOEpoB8LjNKH8qceBQpkTjzOF4uSTkZtl4G/EyUKpUI/DhabbifNhpGfNXFzWEbhfVtfMOgWjLAs96lrqmSZ0FRwpydSfrY5zYZzWfXWZ+yHP6girQ2FkRXmdnvD+8jquuE4Ox+1Wp0NiKdTfSkNIUinVWNwEXKV1U/Udcpq5qhsx4h34WkNCnoQx0NWh2UEhWHOQx0AN5c+2+Lqjklh6bIp935RoqTt7dY4OY9VE69hJS3l1vq5IQ+ivTIaOsYyCUXTWa6wEUeTETYGCt4p5I/FRoD4WL7pTYJFxpBNqlbLu2dGSlQ4dDF2U+Y4eTkyhOPDReBeqIYtmCnQgdDjis9H8l6LrRT8gxtVHQANeEp2cMAVMaTwnjLOxVkamDRe0b9jJ4QZSHqj2SgFrk8Rbmh35QMvUDITPFs7xqO86Yy4z3/Xe3Cfcdfe8wk3/sOMNuutQeoVKaTWvMLuszJfcHionln0rraXVybq6o36ii83ImAKUxXPkhX8C1Di907Hh0bBeHLLS6pUCpKDB6VDfZZ0Oz7y1riv/yLs33I3isKjFBVaCW/yGsGEKdE2CKcU2wZLWiJi05q4ZKzBwumk2jxlJ0XCUaHZqWe1esZ6awxSM18jYW57zHXzQBztXSim9OcMJ3pc5YqqYguaACfsEN1duJ8PMWocbPB40GhsMxdG6vt7luMK5OJrNw7fFLRx8qxT1GbIHRqqX9TrKuYLipb6ZLp+1DChkalZ1cwqdV59a3Dyh0A68bgTmppBo/TPrT0EFYY217kbrIh2Hyi6SmQJrnWZ1rVnOaWXBiZQ2eDPRj8sOOvNyMpA7KHY4GfkdnFfxQ8X8VaOTseVBwUZysLLx0i+5gStTYPjeShh1B8eGM5KbibxxjYGlYucNhIZN4xvnLi4CJIqWFLGPXU/WABEkAyxgsC7b/+/H/P9+zFH+v/Z+DOaCTDFqxPdBe6J4MGJ8mO/HEPmEmWOWFtT/4b405XnAvR+TKBssSHhUXjZnBNiGqxpLlY6MVHq/MuLAymc9Fav40mnl5d5PKoW+/1rc84Wyo+5900k/k/hZ3VASn+qpiMTzoLxIcyyH3uQjbG7w95Xd0JPw+O9IlMTfJ+vYLLp533p7uWtH1bL81dGf+evi7vH8ZfTuZ1BuxLHTwjohjijPN6+KZ+z7MAahYzUj9KJ4/u1mqMQ30ci16sjIcPGBo3V8MeOk48ZoCcR43JBuwoUf03Bv6POp7Nd+m8KNuP3w+OKGn5/fv3/53of9//GLHuxPL18SkX/4Bw==);lineShape=1;strokeColor=default;fontFamily=Architects Daughter;fontSource=https%3A%2F%2Ffonts.googleapis.com%2Fcss%3Ffamily%3DArchitects%2BDaughter;" parent="1" vertex="1">
          <mxGeometry x="314.98" y="15.27" width="237.88" height="204.73" as="geometry" />
        </mxCell>
        <mxCell id="uAQIIgLfSYP05nMSnJHs-4" value="кухня" style="text;strokeColor=none;fillColor=none;html=1;align=center;verticalAlign=middle;whiteSpace=wrap;rounded=0;fontSize=20;fontFamily=Architects Daughter;fontSource=https%3A%2F%2Ffonts.googleapis.com%2Fcss%3Ffamily%3DArchitects%2BDaughter;" parent="1" vertex="1">
          <mxGeometry x="354" y="29" width="60" height="30" as="geometry" />
        </mxCell>
        <mxCell id="uAQIIgLfSYP05nMSnJHs-13" value="" style="shape=stencil(nVrLchw3DPyavbIIvnl2nP9wleVoK4rkkuUk/ns3s8XxENjtWeW2GgEcEmg0HpxT/PDt8dPXh1Pw395eX/58+Of8+e3xFH87hXB+fnx4Pb/h1yl+PMUPX15eH/54ffn+/Pny99dPQ3L8+uvl77HCvxe96EIcSsH/uDzoybX235PfL/JP5+dVvi/yrTqpVD6v8uIkUHm/yNfsEl1f1vVLd/09+y/JZSpfyyKf83xyVT453xb51FwTJt/qKh+ofHZllY/V5X5bvri42jPKtNgN+bLiATvsRL66GhZ5ac4T/1bXlHxwhawP6632Ly4Q84t3ffWvdy0S+exiUPLeE/mu8eNdIPCB9ZKRJ+7CebveTyTnjdE1vT6DZ2wurvgRV8n+gUZZ8RNoOKYy2eCXfCFwSF2fN0wAXod/nMvdt36uM7rvky8yo+m+/RSwk7xn/T7ZbydPwr3GCcc75YvLKn4pPVTYX+8/E/y0aP3F6LNtbLDbP4mvLi5q+2eCt5GtjDxbv034bnxL/SXeaweAYoRYqHfnVYQVVxNRqDrlISY7O0M2MVZozu5IkisokAQK25JMI24KZfL2dQWwmjLrVlhcxwWslFaFPj1/J5ByoYkJdUlckV0OoF1mZG0KIEtipZZ1LCBaG1NIOtgQfpmYFQqyWgnvrAQazZRb8H1mVkK6UPVfna68ThhVBxAAn1iBEFzNWqGwiqXOjLd/A3Fc2Y64UxDyhmzA13mRluGHphWYHwDmIOYNTCHpPDJ4hCXyrgvHYSUCvrghZ+8H4rgYNPNBoRJojNJsPcOOPa9roFpL5hDEEZIN+hotZ0HWKj8A39SuLpp+SFiBp8kbAVfZhlxYOaMHWrB5lxTyZO7whrzKPmBalnAhv54XvMmyldfBOViQFeSatsFpjC5krrbJwyMMpdObm3zgBa22P+RZZss6i2A/LMyKWZ/3l8irqj8uk/Nv9E+q34W/OsFDNfbp1D5F19fAW2JcqvcPPDcin4x8pPZHNCleTJTbtxy/W5+VCTIT8E6eEYqfuWtnn0blVa02SiUejyufoPBhDaDXnAv8ZBq/VfHDVpTcsI/CA/BfyH5Q3q98hfhi68fZnu/jl6Wxd8o3jQfwlSf4l2AIsdCEMap7deJKW+RhUjVCaxRCiElVfYwYJjEft/5hp8DegNpATSkOWALVR4pagcEO9Y3FNeWJZoix0b4rR3NoFJLkDLYKHB0AG42ZOhMKbPhT/UwVO/CxaVTNugU5Utg2sOsohNALynd1hip0flubLnBKptCAQlsPDUMzT2PHqsRBuZ1Y72g4FWChbZTopJkC7SjAKcqs6H9ZSw4SVWO1AD8Q2hvIUXMLPmgC+utqVqnUD8hLqtkEtbEt2VEKqm3WqNlZzVBgfjA9PBTYdMpOmyTz8ZcZZw0FHkBqXjYUWACZgdw4AyuozMTvSMGMFIcCCVE7sxwKjCrNUPTgDXbqeqCQrvmBzSFSMVMzKLB7E9FENkb5BEuxataQRLEUoy7lhbd2Y3YvWoElxXE50LQC25Kt3oYCu94o+vpK+DwIHNGVWfnAH2/QBd+MqFsdfDZuYAUcFERNqD3lYpxQXQGhgGJgHSZZHR0DvUOESVRTgnqINhkyL622BFRpBSd+5qddTmR5vetruOLnHm/Iv+/atOtroINrWVtb8WvfbspDfq3cdVt7cG2N0FRtWJ4ouSGv7DnGRrTN0GOjOt94oy1vamzUqL+qGUB2F+gYIpvZHaPTbPZzJC9mXMn2Y65BD84bjb+4PaNmlQN/RX3te4CH//GZxIE8fvz6JuPL+enp8knH/v/6Gw48unz/ET/+BA==);lineShape=1;strokeColor=default;fontFamily=Architects Daughter;fontSource=https%3A%2F%2Ffonts.googleapis.com%2Fcss%3Ffamily%3DArchitects%2BDaughter;" parent="1" vertex="1">
          <mxGeometry x="353.41" y="59.76" width="136.59" height="60.24" as="geometry" />
        </mxCell>
        <mxCell id="uAQIIgLfSYP05nMSnJHs-18" value="" style="shape=stencil(nVrLchw3DPyavbIIvnl2nP9wleVoK4rkkuUk/ns3s8XxENjtWeW2GgEcEmg0HpxT/PDt8dPXh1Pw395eX/58+Of8+e3xFH87hXB+fnx4Pb/h1yl+PMUPX15eH/54ffn+/Pny99dPQ3L8+uvl77HCvxe96EIcSsH/uDzoybX235PfL/JP5+dVvi/yrTqpVD6v8uIkUHm/yNfsEl1f1vVLd/09+y/JZSpfyyKf83xyVT453xb51FwTJt/qKh+ofHZllY/V5X5bvri42jPKtNgN+bLiATvsRL66GhZ5ac4T/1bXlHxwhawP6632Ly4Q84t3ffWvdy0S+exiUPLeE/mu8eNdIPCB9ZKRJ+7CebveTyTnjdE1vT6DZ2wurvgRV8n+gUZZ8RNoOKYy2eCXfCFwSF2fN0wAXod/nMvdt36uM7rvky8yo+m+/RSwk7xn/T7ZbydPwr3GCcc75YvLKn4pPVTYX+8/E/y0aP3F6LNtbLDbP4mvLi5q+2eCt5GtjDxbv034bnxL/SXeaweAYoRYqHfnVYQVVxNRqDrlISY7O0M2MVZozu5IkisokAQK25JMI24KZfL2dQWwmjLrVlhcxwWslFaFPj1/J5ByoYkJdUlckV0OoF1mZG0KIEtipZZ1LCBaG1NIOtgQfpmYFQqyWgnvrAQazZRb8H1mVkK6UPVfna68ThhVBxAAn1iBEFzNWqGwiqXOjLd/A3Fc2Y64UxDyhmzA13mRluGHphWYHwDmIOYNTCHpPDJ4hCXyrgvHYSUCvrghZ+8H4rgYNPNBoRJojNJsPcOOPa9roFpL5hDEEZIN+hotZ0HWKj8A39SuLpp+SFiBp8kbAVfZhlxYOaMHWrB5lxTyZO7whrzKPmBalnAhv54XvMmyldfBOViQFeSatsFpjC5krrbJwyMMpdObm3zgBa22P+RZZss6i2A/LMyKWZ/3l8irqj8uk/Nv9E+q34W/OsFDNfbp1D5F19fAW2JcqvcPPDcin4x8pPZHNCleTJTbtxy/W5+VCTIT8E6eEYqfuWtnn0blVa02SiUejyufoPBhDaDXnAv8ZBq/VfHDVpTcsI/CA/BfyH5Q3q98hfhi68fZnu/jl6Wxd8o3jQfwlSf4l2AIsdCEMap7deJKW+RhUjVCaxRCiElVfYwYJjEft/5hp8DegNpATSkOWALVR4pagcEO9Y3FNeWJZoix0b4rR3NoFJLkDLYKHB0AG42ZOhMKbPhT/UwVO/CxaVTNugU5Utg2sOsohNALynd1hip0flubLnBKptCAQlsPDUMzT2PHqsRBuZ1Y72g4FWChbZTopJkC7SjAKcqs6H9ZSw4SVWO1AD8Q2hvIUXMLPmgC+utqVqnUD8hLqtkEtbEt2VEKqm3WqNlZzVBgfjA9PBTYdMpOmyTz8ZcZZw0FHkBqXjYUWACZgdw4AyuozMTvSMGMFIcCCVE7sxwKjCrNUPTgDXbqeqCQrvmBzSFSMVMzKLB7E9FENkb5BEuxataQRLEUoy7lhbd2Y3YvWoElxXE50LQC25Kt3oYCu94o+vpK+DwIHNGVWfnAH2/QBd+MqFsdfDZuYAUcFERNqD3lYpxQXQGhgGJgHSZZHR0DvUOESVRTgnqINhkyL622BFRpBSd+5qddTmR5vetruOLnHm/Iv+/atOtroINrWVtb8WvfbspDfq3cdVt7cG2N0FRtWJ4ouSGv7DnGRrTN0GOjOt94oy1vamzUqL+qGUB2F+gYIpvZHaPTbPZzJC9mXMn2Y65BD84bjb+4PaNmlQN/RX3te4CH//GZxIE8fvz6JuPL+enp8knH/v/6Gw48unz/ET/+BA==);lineShape=1;strokeColor=default;fontFamily=Architects Daughter;fontSource=https%3A%2F%2Ffonts.googleapis.com%2Fcss%3Ffamily%3DArchitects%2BDaughter;" parent="1" vertex="1">
          <mxGeometry x="344.70000000000005" y="109.75999999999999" width="136.59" height="60.24" as="geometry" />
        </mxCell>
        <mxCell id="uAQIIgLfSYP05nMSnJHs-19" value="where id == 3" style="text;strokeColor=none;fillColor=none;html=1;align=center;verticalAlign=middle;whiteSpace=wrap;rounded=0;fontSize=18;fontFamily=Architects Daughter;fontSource=https%3A%2F%2Ffonts.googleapis.com%2Fcss%3Ffamily%3DArchitects%2BDaughter;" parent="1" vertex="1">
          <mxGeometry x="384" y="68.91" width="60" height="41.93" as="geometry" />
        </mxCell>
        <mxCell id="uAQIIgLfSYP05nMSnJHs-20" value="where id == 3" style="text;strokeColor=none;fillColor=none;html=1;align=center;verticalAlign=middle;whiteSpace=wrap;rounded=0;fontSize=18;fontFamily=Architects Daughter;fontSource=https%3A%2F%2Ffonts.googleapis.com%2Fcss%3Ffamily%3DArchitects%2BDaughter;" parent="1" vertex="1">
          <mxGeometry x="370" y="118.91" width="60" height="41.93" as="geometry" />
        </mxCell>
        <mxCell id="uAQIIgLfSYP05nMSnJHs-21" value="id=3" style="text;strokeColor=none;fillColor=none;html=1;align=center;verticalAlign=middle;whiteSpace=wrap;rounded=0;fontSize=20;fontFamily=Architects Daughter;fontSource=https%3A%2F%2Ffonts.googleapis.com%2Fcss%3Ffamily%3DArchitects%2BDaughter;" parent="1" vertex="1">
          <mxGeometry x="230" y="29.759999999999998" width="60" height="30" as="geometry" />
        </mxCell>
      </root>
    </mxGraphModel>
  </diagram>
</mxfile>
